<?xml version="1.0" encoding="UTF-8"?>
<svg xmlns="http://www.w3.org/2000/svg" xmlns:xlink="http://www.w3.org/1999/xlink" width="32px" height="32px" viewBox="0 0 32 32" version="1.1">
<g id="surface1">
<path style=" stroke:none;fill-rule:nonzero;fill:rgb(93.725491%,90.588236%,82.352942%);fill-opacity:1;" d="M 26.464844 6.625 C 25.40625 5.121094 24.191406 3.710938 22.878906 2.464844 C 21.28125 0.960938 19.710938 0.320312 17.601562 1.28125 C 15.808594 2.078125 14.207031 3.488281 12.609375 4.671875 L 7.167969 8.609375 C 5.664062 9.695312 4.128906 10.6875 3.519531 12.574219 C 3.390625 13.023438 3.296875 13.472656 3.296875 13.953125 C 3.199219 13.984375 3.136719 14.015625 3.039062 14.046875 L 2.945312 14.078125 L 2.878906 14.078125 C 2.207031 14.304688 1.503906 14.847656 1.375 15.585938 L 1.375 15.648438 C 1.34375 15.839844 1.34375 16.03125 1.34375 16.222656 C 1.023438 17.023438 1.214844 17.921875 1.824219 18.527344 C 1.886719 18.558594 1.921875 18.625 1.984375 18.65625 C 2.015625 19.296875 2.207031 19.9375 2.527344 20.511719 C 3.136719 21.566406 4.128906 22.273438 5.023438 23.070312 C 6.015625 23.9375 6.945312 24.832031 7.871094 25.761719 C 9.472656 27.359375 11.296875 30.398438 13.855469 30.398438 C 15.199219 30.398438 16.289062 29.535156 17.34375 28.800781 L 20.734375 26.433594 C 22.910156 24.929688 25.121094 23.457031 27.230469 21.855469 C 28.289062 21.121094 29.121094 20.128906 29.695312 18.976562 C 30.335938 18.625 30.71875 17.921875 30.6875 17.183594 C 30.65625 13.375 28.640625 9.632812 26.464844 6.625 Z M 26.464844 6.625 "/>
<path style=" stroke:none;fill-rule:nonzero;fill:rgb(0%,0%,0%);fill-opacity:1;" d="M 30.71875 15.96875 C 30.238281 14.910156 28.160156 10.527344 23.808594 5.28125 C 23.136719 4.449219 22.207031 3.390625 21.089844 2.207031 C 20.351562 1.441406 19.199219 1.3125 18.335938 1.855469 L 18.558594 2.273438 L 18.304688 1.886719 C 15.230469 3.777344 12.0625 5.886719 8.832031 8.257812 C 7.039062 9.535156 5.34375 10.816406 3.710938 12.097656 C 2.785156 12.832031 2.625 14.175781 3.328125 15.105469 L 1.601562 16.542969 C 0.800781 17.214844 0.703125 18.398438 1.34375 19.199219 C 4.574219 23.105469 8.160156 26.71875 12.03125 30.015625 C 12.351562 30.304688 12.703125 30.527344 13.054688 30.753906 C 13.441406 30.976562 13.886719 31.105469 14.335938 31.136719 C 14.335938 31.136719 14.367188 31.136719 14.367188 31.136719 C 14.398438 31.167969 14.433594 31.167969 14.464844 31.199219 C 14.59375 31.230469 14.71875 31.230469 14.847656 31.167969 C 19.457031 28.609375 23.777344 25.535156 27.679688 22.015625 C 28.480469 21.3125 29.214844 20.609375 29.921875 19.902344 C 30.59375 19.265625 30.945312 18.367188 30.945312 17.441406 C 31.039062 16.929688 30.945312 16.449219 30.71875 15.96875 Z M 18.816406 2.65625 C 19.328125 2.335938 20 2.433594 20.414062 2.847656 C 21.535156 4.03125 22.433594 5.054688 23.105469 5.855469 C 27.359375 11.007812 29.40625 15.328125 29.886719 16.320312 L 29.886719 16.351562 C 30.046875 16.671875 30.113281 17.023438 30.113281 17.375 C 30.113281 18.046875 29.824219 18.6875 29.34375 19.167969 C 28.640625 19.871094 27.902344 20.574219 27.136719 21.246094 C 23.390625 24.671875 19.296875 27.617188 14.878906 30.078125 C 14.304688 28.863281 13.695312 27.648438 12.992188 26.398438 C 10.59375 22.113281 7.617188 18.144531 4.160156 14.59375 C 3.679688 14.113281 3.710938 13.34375 4.191406 12.894531 C 4.222656 12.863281 4.257812 12.832031 4.289062 12.800781 C 5.921875 11.519531 7.617188 10.273438 9.375 8.992188 C 12.609375 6.65625 15.742188 4.542969 18.816406 2.65625 Z M 1.886719 17.984375 C 1.886719 17.695312 2.015625 17.441406 2.238281 17.246094 L 4 15.777344 C 4.160156 15.96875 4.351562 16.128906 4.511719 16.320312 C 4.703125 16.542969 4.929688 16.769531 5.121094 16.992188 C 5.121094 16.992188 5.089844 16.992188 5.089844 16.992188 C 5.054688 16.992188 5.054688 17.023438 5.023438 17.023438 C 4.511719 17.3125 4.03125 17.726562 3.648438 18.175781 C 3.488281 18.367188 3.519531 18.65625 3.710938 18.816406 C 3.902344 18.976562 4.191406 18.945312 4.351562 18.753906 C 4.671875 18.367188 5.089844 18.015625 5.535156 17.761719 C 5.601562 17.726562 5.632812 17.664062 5.695312 17.632812 C 5.886719 17.855469 6.078125 18.078125 6.273438 18.304688 C 6.175781 18.335938 6.113281 18.398438 6.015625 18.464844 C 5.535156 18.753906 5.054688 19.136719 4.640625 19.519531 C 4.449219 19.679688 4.449219 20 4.609375 20.160156 C 4.769531 20.351562 5.089844 20.351562 5.246094 20.191406 C 5.246094 20.191406 5.246094 20.191406 5.28125 20.160156 C 5.664062 19.777344 6.078125 19.457031 6.527344 19.199219 C 6.59375 19.167969 6.65625 19.136719 6.71875 19.105469 C 6.753906 19.070312 6.785156 19.039062 6.816406 19.007812 C 6.945312 19.167969 7.070312 19.359375 7.230469 19.519531 C 7.136719 19.519531 7.070312 19.585938 7.007812 19.617188 L 6.910156 19.710938 C 6.59375 20 6.238281 20.289062 5.921875 20.609375 C 5.726562 20.769531 5.695312 21.054688 5.886719 21.246094 C 6.046875 21.441406 6.335938 21.472656 6.527344 21.28125 L 7.457031 20.449219 L 7.648438 20.289062 C 7.710938 20.257812 7.742188 20.191406 7.777344 20.128906 C 7.9375 20.351562 8.128906 20.574219 8.289062 20.832031 C 8.160156 20.929688 8.03125 20.992188 7.9375 21.089844 C 7.617188 21.34375 7.296875 21.601562 7.039062 21.921875 C 6.878906 22.113281 6.878906 22.398438 7.070312 22.558594 C 7.265625 22.71875 7.550781 22.71875 7.710938 22.527344 C 7.9375 22.273438 8.191406 22.046875 8.449219 21.855469 C 8.574219 21.761719 8.703125 21.664062 8.832031 21.601562 C 8.960938 21.761719 9.054688 21.921875 9.183594 22.113281 C 9.152344 22.113281 9.152344 22.144531 9.121094 22.144531 C 9.023438 22.207031 8.894531 22.304688 8.800781 22.367188 C 8.511719 22.59375 8.257812 22.847656 8.03125 23.136719 C 7.871094 23.328125 7.902344 23.617188 8.097656 23.777344 C 8.289062 23.9375 8.574219 23.902344 8.734375 23.710938 C 8.929688 23.488281 9.121094 23.296875 9.34375 23.136719 C 9.441406 23.070312 9.535156 22.976562 9.632812 22.910156 C 9.664062 22.910156 9.664062 22.878906 9.695312 22.878906 C 9.792969 23.039062 9.921875 23.199219 10.015625 23.359375 C 9.984375 23.390625 9.921875 23.390625 9.886719 23.457031 C 9.824219 23.519531 9.761719 23.585938 9.664062 23.648438 C 9.472656 23.808594 9.246094 24 9.054688 24.128906 C 8.832031 24.289062 8.800781 24.574219 8.929688 24.769531 C 9.089844 24.992188 9.375 25.023438 9.566406 24.894531 C 9.792969 24.734375 9.984375 24.574219 10.207031 24.414062 C 10.304688 24.320312 10.398438 24.257812 10.496094 24.160156 C 10.625 24.382812 10.785156 24.609375 10.910156 24.832031 C 10.910156 24.832031 10.878906 24.832031 10.878906 24.832031 C 10.558594 25.054688 10.304688 25.3125 10.144531 25.664062 C 10.015625 25.886719 10.113281 26.175781 10.335938 26.304688 C 10.558594 26.433594 10.847656 26.335938 10.976562 26.113281 C 11.039062 26.015625 11.105469 25.921875 11.199219 25.824219 C 11.265625 25.761719 11.328125 25.695312 11.425781 25.632812 C 11.679688 26.046875 11.902344 26.464844 12.160156 26.878906 C 12.382812 27.265625 12.574219 27.648438 12.800781 28.03125 C 13.152344 28.734375 13.503906 29.40625 13.824219 30.078125 C 13.726562 30.046875 13.632812 29.984375 13.535156 29.953125 C 13.214844 29.761719 12.929688 29.566406 12.671875 29.3125 C 8.832031 26.078125 5.3125 22.496094 2.113281 18.625 C 1.984375 18.433594 1.886719 18.207031 1.886719 17.984375 Z M 1.886719 17.984375 "/>
<path style=" stroke:none;fill-rule:nonzero;fill:rgb(0%,0%,0%);fill-opacity:1;" d="M 6.238281 14.433594 C 6.398438 14.625 6.71875 14.625 6.878906 14.464844 C 8.449219 13.023438 10.175781 11.777344 12.03125 10.71875 C 12.257812 10.59375 12.351562 10.335938 12.222656 10.113281 C 12.097656 9.886719 11.839844 9.792969 11.617188 9.921875 C 11.617188 9.921875 11.585938 9.921875 11.585938 9.953125 C 9.664062 11.039062 7.902344 12.351562 6.273438 13.824219 C 6.078125 13.953125 6.078125 14.238281 6.238281 14.433594 Z M 6.238281 14.433594 "/>
<path style=" stroke:none;fill-rule:nonzero;fill:rgb(0%,0%,0%);fill-opacity:1;" d="M 7.199219 15.96875 C 7.359375 16.160156 7.648438 16.191406 7.839844 16.03125 C 9.472656 14.625 11.167969 13.3125 12.894531 12.0625 C 13.121094 11.902344 13.152344 11.617188 12.992188 11.425781 C 12.832031 11.199219 12.542969 11.167969 12.351562 11.328125 C 10.59375 12.609375 8.863281 13.953125 7.230469 15.359375 C 7.070312 15.488281 7.039062 15.777344 7.199219 15.96875 Z M 7.199219 15.96875 "/>
<path style=" stroke:none;fill-rule:nonzero;fill:rgb(0%,0%,0%);fill-opacity:1;" d="M 14.558594 13.28125 C 14.753906 13.121094 14.816406 12.832031 14.65625 12.640625 C 14.496094 12.449219 14.207031 12.382812 14.015625 12.542969 L 8.449219 16.609375 C 8.257812 16.769531 8.191406 17.054688 8.351562 17.246094 C 8.511719 17.441406 8.800781 17.503906 8.992188 17.34375 C 10.847656 16 12.703125 14.625 14.558594 13.28125 Z M 14.558594 13.28125 "/>
<path style=" stroke:none;fill-rule:nonzero;fill:rgb(0%,0%,0%);fill-opacity:1;" d="M 15.617188 14.785156 C 15.839844 14.65625 15.902344 14.367188 15.777344 14.144531 C 15.648438 13.921875 15.359375 13.855469 15.136719 13.984375 C 13.121094 15.199219 11.230469 16.574219 9.472656 18.113281 C 9.28125 18.273438 9.246094 18.558594 9.40625 18.753906 C 9.566406 18.945312 9.855469 18.976562 10.046875 18.816406 C 11.777344 17.3125 13.632812 15.96875 15.617188 14.785156 Z M 15.617188 14.785156 "/>
<path style=" stroke:none;fill-rule:nonzero;fill:rgb(0%,0%,0%);fill-opacity:1;" d="M 16.734375 16.097656 C 16.960938 15.96875 17.023438 15.679688 16.894531 15.457031 C 16.769531 15.230469 16.480469 15.167969 16.257812 15.296875 C 14.304688 16.480469 12.480469 17.824219 10.785156 19.359375 C 10.59375 19.519531 10.59375 19.839844 10.753906 20 C 10.910156 20.191406 11.199219 20.191406 11.390625 20.03125 C 13.054688 18.59375 14.816406 17.246094 16.734375 16.097656 Z M 16.734375 16.097656 "/>
<path style=" stroke:none;fill-rule:nonzero;fill:rgb(0%,0%,0%);fill-opacity:1;" d="M 12.609375 22.207031 C 12.769531 22.433594 13.054688 22.464844 13.246094 22.335938 C 17.3125 19.519531 21.34375 16.609375 25.3125 13.664062 C 25.503906 13.503906 25.566406 13.214844 25.40625 13.023438 C 25.246094 12.832031 24.960938 12.769531 24.769531 12.929688 C 20.800781 15.839844 16.769531 18.71875 12.734375 21.535156 C 12.511719 21.695312 12.449219 21.984375 12.609375 22.207031 Z M 12.609375 22.207031 "/>
<path style=" stroke:none;fill-rule:nonzero;fill:rgb(0%,0%,0%);fill-opacity:1;" d="M 14.785156 24.480469 C 15.9375 23.648438 17.089844 22.878906 18.273438 22.113281 C 18.496094 21.984375 18.558594 21.695312 18.433594 21.472656 C 18.304688 21.246094 18.015625 21.183594 17.792969 21.3125 C 16.609375 22.078125 15.425781 22.878906 14.273438 23.710938 C 14.078125 23.871094 14.046875 24.160156 14.207031 24.351562 C 14.304688 24.542969 14.59375 24.609375 14.785156 24.480469 Z M 14.785156 24.480469 "/>
<path style=" stroke:none;fill-rule:nonzero;fill:rgb(0%,0%,0%);fill-opacity:1;" d="M 15.457031 25.984375 C 16.640625 25.054688 17.886719 24.257812 19.230469 23.550781 C 19.457031 23.425781 19.550781 23.167969 19.425781 22.910156 C 19.296875 22.65625 19.039062 22.59375 18.785156 22.71875 C 17.40625 23.425781 16.097656 24.289062 14.878906 25.246094 C 14.6875 25.40625 14.65625 25.695312 14.816406 25.886719 C 14.976562 26.113281 15.265625 26.144531 15.457031 25.984375 Z M 15.457031 25.984375 "/>
<path style=" stroke:none;fill-rule:nonzero;fill:rgb(0%,0%,0%);fill-opacity:1;" d="M 19.359375 24.351562 C 18.015625 25.089844 16.703125 25.984375 15.519531 26.976562 C 15.328125 27.136719 15.296875 27.425781 15.457031 27.617188 C 15.617188 27.808594 15.902344 27.839844 16.097656 27.679688 C 17.246094 26.71875 18.496094 25.886719 19.808594 25.183594 C 20.03125 25.054688 20.128906 24.769531 20 24.542969 C 19.871094 24.320312 19.585938 24.222656 19.359375 24.351562 Z M 19.359375 24.351562 "/>
<path style=" stroke:none;fill-rule:nonzero;fill:rgb(0%,0%,0%);fill-opacity:1;" d="M 22.753906 18.144531 C 22.625 17.921875 22.367188 17.824219 22.113281 17.953125 C 21.089844 18.464844 20.160156 19.105469 19.265625 19.839844 C 19.070312 20 19.039062 20.289062 19.199219 20.480469 C 19.359375 20.671875 19.648438 20.703125 19.839844 20.542969 C 19.839844 20.542969 19.839844 20.542969 19.871094 20.511719 C 20.703125 19.808594 21.601562 19.230469 22.558594 18.71875 C 22.785156 18.65625 22.878906 18.367188 22.753906 18.144531 Z M 22.753906 18.144531 "/>
<path style=" stroke:none;fill-rule:nonzero;fill:rgb(0%,0%,0%);fill-opacity:1;" d="M 23.457031 20.257812 C 23.679688 20.128906 23.777344 19.871094 23.679688 19.648438 C 23.585938 19.425781 23.296875 19.328125 23.070312 19.425781 C 21.984375 19.9375 20.960938 20.640625 20.097656 21.503906 C 19.902344 21.695312 19.902344 21.984375 20.097656 22.175781 C 20.289062 22.367188 20.574219 22.367188 20.769531 22.175781 C 21.535156 21.375 22.464844 20.734375 23.457031 20.257812 Z M 23.457031 20.257812 "/>
<path style=" stroke:none;fill-rule:nonzero;fill:rgb(0%,0%,0%);fill-opacity:1;" d="M 23.777344 20.863281 C 22.785156 21.503906 21.855469 22.238281 21.023438 23.039062 C 20.832031 23.199219 20.832031 23.519531 20.992188 23.679688 C 21.152344 23.871094 21.472656 23.871094 21.632812 23.710938 C 21.632812 23.710938 21.632812 23.710938 21.664062 23.679688 C 22.464844 22.910156 23.359375 22.207031 24.289062 21.601562 C 24.511719 21.472656 24.574219 21.183594 24.449219 20.960938 C 24.320312 20.734375 24 20.703125 23.777344 20.863281 Z M 23.777344 20.863281 "/>
<path style=" stroke:none;fill-rule:nonzero;fill:rgb(0%,0%,0%);fill-opacity:1;" d="M 23.742188 17.34375 C 23.902344 17.535156 24.191406 17.601562 24.382812 17.441406 L 26.59375 15.777344 C 26.785156 15.617188 26.847656 15.328125 26.6875 15.136719 C 26.527344 14.945312 26.238281 14.878906 26.046875 15.039062 C 25.3125 15.585938 24.574219 16.160156 23.839844 16.703125 C 23.617188 16.863281 23.585938 17.152344 23.742188 17.34375 Z M 23.742188 17.34375 "/>
<path style=" stroke:none;fill-rule:nonzero;fill:rgb(0%,0%,0%);fill-opacity:1;" d="M 24.449219 18.945312 C 24.609375 19.136719 24.929688 19.136719 25.089844 18.976562 C 25.824219 18.304688 26.625 17.664062 27.488281 17.152344 C 27.710938 17.023438 27.777344 16.734375 27.648438 16.511719 C 27.519531 16.289062 27.230469 16.222656 27.007812 16.351562 C 26.113281 16.929688 25.246094 17.566406 24.449219 18.273438 C 24.289062 18.464844 24.289062 18.753906 24.449219 18.945312 Z M 24.449219 18.945312 "/>
<path style=" stroke:none;fill-rule:nonzero;fill:rgb(0%,0%,0%);fill-opacity:1;" d="M 25.246094 20.320312 C 25.40625 20.511719 25.695312 20.542969 25.886719 20.382812 C 26.65625 19.710938 27.457031 19.105469 28.320312 18.558594 C 28.542969 18.433594 28.609375 18.144531 28.449219 17.921875 C 28.320312 17.695312 28.03125 17.632812 27.808594 17.792969 C 26.910156 18.367188 26.078125 19.007812 25.28125 19.679688 C 25.089844 19.808594 25.054688 20.128906 25.246094 20.320312 Z M 25.246094 20.320312 "/>
<path style=" stroke:none;fill-rule:nonzero;fill:rgb(0%,0%,0%);fill-opacity:1;" d="M 13.535156 9.441406 C 15.105469 11.136719 16.414062 13.054688 17.40625 15.167969 C 17.503906 15.390625 17.792969 15.488281 18.015625 15.390625 C 18.015625 15.390625 18.046875 15.390625 18.046875 15.359375 C 20.097656 14.078125 22.078125 12.769531 24 11.328125 C 24.222656 11.167969 24.257812 10.878906 24.128906 10.6875 C 23.96875 10.464844 23.679688 10.433594 23.488281 10.558594 C 23.488281 10.558594 23.488281 10.558594 23.457031 10.558594 C 21.824219 11.777344 20.128906 12.929688 18.367188 14.046875 C 18.304688 12.671875 18.238281 11.328125 18.175781 9.953125 C 18.910156 10.113281 19.648438 10.238281 20.382812 10.304688 C 20.640625 10.335938 20.863281 10.144531 20.894531 9.886719 C 20.894531 9.855469 20.894531 9.824219 20.894531 9.792969 C 20.734375 8.671875 20.511719 7.550781 20.222656 6.464844 L 20.769531 6.847656 C 20.992188 7.007812 21.28125 6.945312 21.40625 6.753906 C 21.566406 6.558594 21.503906 6.273438 21.3125 6.113281 L 20.0625 5.214844 C 20 5.183594 19.9375 5.121094 19.871094 5.089844 C 19.777344 5.023438 19.648438 4.992188 19.550781 4.992188 L 19.519531 4.992188 C 19.390625 4.992188 19.265625 5.023438 19.136719 5.089844 C 19.007812 5.183594 18.910156 5.28125 18.816406 5.40625 C 18.753906 5.503906 18.71875 5.601562 18.6875 5.726562 L 18.175781 7.199219 C 18.144531 7.265625 18.144531 7.328125 18.144531 7.390625 C 18.144531 7.457031 18.144531 7.519531 18.175781 7.585938 C 18.207031 7.679688 18.273438 7.742188 18.335938 7.808594 C 18.496094 7.9375 18.6875 7.9375 18.847656 7.839844 C 18.910156 7.808594 18.976562 7.742188 19.039062 7.679688 C 19.105469 7.585938 19.136719 7.425781 19.105469 7.296875 L 19.296875 6.71875 C 19.519531 7.585938 19.679688 8.449219 19.839844 9.34375 C 19.136719 9.246094 18.464844 9.121094 17.792969 8.929688 C 17.535156 8.863281 17.28125 8.992188 17.214844 9.246094 C 17.214844 9.28125 17.183594 9.34375 17.183594 9.40625 C 17.246094 10.65625 17.28125 11.871094 17.34375 13.121094 C 16.449219 11.585938 15.390625 10.113281 14.175781 8.832031 C 14.015625 8.640625 13.695312 8.640625 13.535156 8.800781 C 13.375 8.929688 13.34375 9.246094 13.535156 9.441406 C 13.535156 9.40625 13.535156 9.441406 13.535156 9.441406 Z M 13.535156 9.441406 "/>
</g>
</svg>
